# xmcd
#
# Track frame offsets:
#	150
#	9757
#	17085
#	47188
#	64513
#	106245
#	125640
#	141375
#	161030
#	179625
#	192860
#
# Disc length: 3289 seconds
#
# Revision: 1
# Processed by: cddbd v1.5.2PL0 Copyright (c) Steve Scherf et al.
# Submitted via: audiograbber 1.83.01
#
DISCID=950cd70b
DTITLE=Πέτρος Γαιτάνος - Ωρα ενάτη
DYEAR=1900
DGENRE=
TTITLE0=Ιδού ο Νυμφίος
TTITLE1=Το Νυμφώνα Σου
TTITLE2=Σήμερον κρεμάται
TTITLE3=Εξέδυσαν με τα ιμάτια Μου
TTITLE4=Σε τον Αναβαλλόμενον
TTITLE5=Η Ζωή εν Τάφω
TTITLE6=Αξιον Εστί
TTITLE7=Αι γενεαί πάσαι
TTITLE8=Αναστάσεως ημέρα
TTITLE9=Χριστός Ανέστη
TTITLE10=Ο Υμνος της αγάπης
EXTD=
EXTT0=
EXTT1=
EXTT2=
EXTT3=
EXTT4=
EXTT5=
EXTT6=
EXTT7=
EXTT8=
EXTT9=
EXTT10=
PLAYORDER=
